<svg xmlns="http://www.w3.org/2000/svg" xmlns:xlink="http://www.w3.org/1999/xlink" width="1320" height="990" overflow="hidden"><defs><clipPath id="clip0"><rect width="1320" height="990" x="1907" y="139"/></clipPath></defs><g clip-path="url(#clip0)" transform="translate(-1907 -139)"><rect width="1320" height="990" x="1907" y="139" fill="#FFF"/><path fill="none" fill-rule="evenodd" stroke="#0171C3" stroke-miterlimit="8" stroke-width="20.541" d="M0.00756648 0.0364743 153.008 492.037" transform="matrix(1 0 0 -1 2090.5 932.5)"/><path fill="none" fill-rule="evenodd" stroke="#0171C3" stroke-miterlimit="8" stroke-width="20.541" d="M2241.86 430.229 2400.86 941.229"/><path fill="#28A745" fill-rule="evenodd" d="M2047.36 930.729C2047.36 908.089 2065.72 889.728 2088.36 889.728 2111 889.728 2129.36 908.089 2129.36 930.729 2129.36 953.369 2111 971.729 2088.36 971.729 2065.72 971.729 2047.36 953.369 2047.36 930.729Z"/><path fill="#28A745" fill-rule="evenodd" d="M2201.36 433.729C2201.36 410.532 2219.72 391.728 2242.36 391.728 2265 391.728 2283.36 410.532 2283.36 433.729 2283.36 456.924 2265 475.729 2242.36 475.729 2219.72 475.729 2201.36 456.924 2201.36 433.729Z"/><path fill="none" fill-rule="evenodd" stroke="#0171C3" stroke-miterlimit="8" stroke-width="20.541" d="M0.0637745 0.0364743 153.064 492.037" transform="matrix(1 0 0 -1 2401.5 932.5)"/><path fill="none" fill-rule="evenodd" stroke="#0171C3" stroke-miterlimit="8" stroke-width="20.541" d="M2554.86 430.229 2713.86 941.229"/><path fill="#28A745" fill-rule="evenodd" d="M2360.36 930.729C2360.36 908.089 2378.72 889.728 2401.36 889.728 2424 889.728 2442.36 908.089 2442.36 930.729 2442.36 953.369 2424 971.729 2401.36 971.729 2378.72 971.729 2360.36 953.369 2360.36 930.729Z"/><path fill="#28A745" fill-rule="evenodd" d="M2514.37 433.729C2514.37 410.532 2532.5 391.728 2554.87 391.728 2577.23 391.728 2595.37 410.532 2595.37 433.729 2595.37 456.924 2577.23 475.729 2554.87 475.729 2532.5 475.729 2514.37 456.924 2514.37 433.729Z"/><path fill="none" fill-rule="evenodd" stroke="#0171C3" stroke-miterlimit="8" stroke-width="20.541" d="M0.12133 0.005045 150.122 653.006" transform="matrix(1 0 0 -1 2718.5 920.5)"/><path fill="none" fill-rule="evenodd" stroke="#0171C3" stroke-miterlimit="8" stroke-width="20.541" d="M2876.86 263.229 3071.86 926.23"/><path fill="#28A745" fill-rule="evenodd" d="M2675.36 920.729C2675.36 898.089 2694.16 879.728 2717.36 879.728 2740.56 879.728 2759.36 898.089 2759.36 920.729 2759.36 943.369 2740.56 961.729 2717.36 961.729 2694.16 961.729 2675.36 943.369 2675.36 920.729Z"/><path fill="#28A745" fill-rule="evenodd" d="M3030.36 920.729C3030.36 898.089 3049.16 879.728 3072.36 879.728 3095.56 879.728 3114.36 898.089 3114.36 920.729 3114.36 943.369 3095.56 961.729 3072.36 961.729 3049.16 961.729 3030.36 943.369 3030.36 920.729Z"/><path fill="#DC3545" fill-rule="evenodd" d="M2835.37 279.232C2835.37 256.864 2853.94 238.732 2876.87 238.732 2899.79 238.732 2918.37 256.864 2918.37 279.232 2918.37 301.6 2899.79 319.732 2876.87 319.732 2853.94 319.732 2835.37 301.6 2835.37 279.232Z"/></g></svg>