<svg xmlns="http://www.w3.org/2000/svg" xmlns:xlink="http://www.w3.org/1999/xlink" width="1320" height="990" overflow="hidden"><defs><clipPath id="clip0"><rect width="1320" height="990" x="192" y="139"/></clipPath></defs><g clip-path="url(#clip0)" transform="translate(-192 -139)"><rect width="1320" height="990" x="192" y="139" fill="#FFF"/><path fill="none" fill-rule="evenodd" stroke="#0171C3" stroke-miterlimit="8" stroke-width="20.845" d="M316.254 753.236 563.254 1013.24"/><path fill="none" fill-rule="evenodd" stroke="#0171C3" stroke-miterlimit="8" stroke-width="20.845" d="M0.048095 0.0538267 156.049 500.054" transform="matrix(1 0 0 -1 563.5 1014.5)"/><path fill="none" fill-rule="evenodd" stroke="#0171C3" stroke-miterlimit="8" stroke-width="20.845" d="M719.254 504.237 966.254 764.236"/><path fill="none" fill-rule="evenodd" stroke="#0171C3" stroke-dasharray="83.379 62.534" stroke-miterlimit="8" stroke-width="20.845" d="M0.119695 0.00939258 156.12 500.01" transform="matrix(1 0 0 -1 964.5 765.5)"/><path fill="none" fill-rule="evenodd" stroke="#0171C3" stroke-dasharray="83.379 62.534" stroke-miterlimit="8" stroke-width="20.845" d="M1120.25 255.236 1367.25 515.237"/><path fill="#EE9040" fill-rule="evenodd" d="M293.754 776.237C293.754 753.317 312.334 734.737 335.254 734.737 358.175 734.737 376.755 753.317 376.755 776.237 376.755 799.154 358.175 817.737 335.254 817.737 312.334 817.737 293.754 799.154 293.754 776.237Z"/><path fill="#EE9040" fill-rule="evenodd" d="M520.754 1013.24C520.754 990.321 539.782 971.737 563.255 971.737 586.727 971.737 605.754 990.321 605.754 1013.24 605.754 1036.15 586.727 1054.74 563.255 1054.74 539.782 1054.74 520.754 1036.15 520.754 1013.24Z"/><path fill="#EE9040" fill-rule="evenodd" d="M676.754 509.237C676.754 486.317 695.782 467.737 719.254 467.737 742.727 467.737 761.754 486.317 761.754 509.237 761.754 532.157 742.727 550.737 719.254 550.737 695.782 550.737 676.754 532.157 676.754 509.237Z"/><path fill="#EE9040" fill-rule="evenodd" d="M923.754 754.237C923.754 731.317 942.338 712.737 965.254 712.737 988.171 712.737 1006.75 731.317 1006.75 754.237 1006.75 777.154 988.171 795.737 965.254 795.737 942.338 795.737 923.754 777.154 923.754 754.237Z"/><path fill="#EE9040" fill-rule="evenodd" d="M1077.75 255.237C1077.75 231.765 1096.78 212.737 1120.25 212.737 1143.73 212.737 1162.75 231.765 1162.75 255.237 1162.75 278.709 1143.73 297.737 1120.25 297.737 1096.78 297.737 1077.75 278.709 1077.75 255.237Z"/><path fill="#EE9040" fill-rule="evenodd" d="M1326.75 504.237C1326.75 480.765 1345.34 461.737 1368.25 461.737 1391.17 461.737 1409.75 480.765 1409.75 504.237 1409.75 527.709 1391.17 546.737 1368.25 546.737 1345.34 546.737 1326.75 527.709 1326.75 504.237Z"/></g></svg>